<?xml version="1.0" encoding="UTF-8"?><svg xmlns="http://www.w3.org/2000/svg" xmlns:xlink="http://www.w3.org/1999/xlink" fill-opacity="1" color-rendering="auto" color-interpolation="auto" text-rendering="auto" stroke="black" stroke-linecap="square" width="343" stroke-miterlimit="10" shape-rendering="auto" stroke-opacity="1" fill="black" stroke-dasharray="none" font-weight="normal" stroke-width="1" height="180" font-family="'Dialog'" font-style="normal" stroke-linejoin="miter" font-size="12px" stroke-dashoffset="0" image-rendering="auto">
  <!--Generated by ySVG 2.5-->
  <defs id="genericDefs"/>
  <g>
    <defs id="defs1">
      <clipPath clipPathUnits="userSpaceOnUse" id="clipPath1">
        <path d="M0 0 L343 0 L343 180 L0 180 L0 0 Z"/>
      </clipPath>
      <clipPath clipPathUnits="userSpaceOnUse" id="clipPath2">
        <path d="M-32 32 L311 32 L311 212 L-32 212 L-32 32 Z"/>
      </clipPath>
    </defs>
    <g fill="white" text-rendering="geometricPrecision" shape-rendering="geometricPrecision" transform="translate(32,-32)" stroke="white">
      <rect x="-32" width="343" height="180" y="32" clip-path="url(#clipPath2)" stroke="none"/>
    </g>
    <g fill="rgb(234,234,234)" text-rendering="geometricPrecision" shape-rendering="geometricPrecision" transform="matrix(1,0,0,1,32,-32)" stroke="rgb(234,234,234)">
      <rect x="17.6159" y="37.0668" clip-path="url(#clipPath2)" width="112.944" rx="4" ry="4" height="169.264" stroke="none"/>
    </g>
    <g text-rendering="geometricPrecision" stroke-miterlimit="1.45" shape-rendering="geometricPrecision" font-family="sans-serif" transform="matrix(1,0,0,1,32,-32)" stroke-linecap="butt">
      <text x="51.6611" xml:space="preserve" y="54.2054" clip-path="url(#clipPath2)" stroke="none">Invoker</text>
      <rect x="17.6159" y="37.0668" clip-path="url(#clipPath2)" fill="none" width="112.944" rx="4" ry="4" height="169.264" stroke="rgb(51,51,51)"/>
    </g>
    <g fill="rgb(66,139,202)" text-rendering="geometricPrecision" shape-rendering="geometricPrecision" transform="matrix(1,0,0,1,32,-32)" stroke="rgb(66,139,202)">
      <rect x="97.0527" y="64.7148" clip-path="url(#clipPath2)" width="208.6266" rx="4" ry="4" height="63.28" stroke="none"/>
    </g>
    <g stroke-linecap="butt" transform="matrix(1,0,0,1,32,-32)" fill="rgb(45,86,122)" text-rendering="geometricPrecision" shape-rendering="geometricPrecision" stroke="rgb(45,86,122)" stroke-miterlimit="1.45">
      <rect x="97.0527" y="64.7148" clip-path="url(#clipPath2)" fill="none" width="208.6266" rx="4" ry="4" height="63.28"/>
      <text x="166.4236" y="119.1647" clip-path="url(#clipPath2)" fill="white" font-family="sans-serif" stroke="none" xml:space="preserve">CommandA</text>
    </g>
    <g fill="white" text-rendering="geometricPrecision" shape-rendering="geometricPrecision" transform="matrix(1,0,0,1,32,-32)" stroke="white">
      <ellipse rx="52.6527" ry="16.8944" clip-path="url(#clipPath2)" cx="162.0751" cy="88.6748" stroke="none"/>
    </g>
    <g text-rendering="geometricPrecision" stroke-miterlimit="1.45" shape-rendering="geometricPrecision" transform="matrix(1,0,0,1,32,-32)" stroke-linecap="butt">
      <ellipse rx="52.6527" fill="none" ry="16.8944" clip-path="url(#clipPath2)" cx="162.0751" cy="88.6748"/>
      <text x="131.744" xml:space="preserve" y="92.8291" clip-path="url(#clipPath2)" font-family="sans-serif" stroke="none">ReceiverA</text>
    </g>
    <g fill="white" text-rendering="geometricPrecision" shape-rendering="geometricPrecision" transform="matrix(1,0,0,1,32,-32)" stroke="white">
      <rect x="231.8111" width="68.8506" height="17.2" y="80.0748" clip-path="url(#clipPath2)" stroke="none"/>
    </g>
    <g text-rendering="geometricPrecision" stroke-miterlimit="1.45" shape-rendering="geometricPrecision" transform="matrix(1,0,0,1,32,-32)" stroke-linecap="butt">
      <rect fill="none" x="231.8111" width="68.8506" height="17.2" y="80.0748" clip-path="url(#clipPath2)"/>
      <text x="237.8111" xml:space="preserve" y="92.8291" clip-path="url(#clipPath2)" font-family="sans-serif" stroke="none">.action1()</text>
    </g>
    <g fill="rgb(234,234,234)" text-rendering="geometricPrecision" shape-rendering="geometricPrecision" transform="matrix(1,0,0,1,32,-32)" stroke="rgb(234,234,234)">
      <rect x="21.3343" width="9.7862" height="14.64" y="93.8988" clip-path="url(#clipPath2)" stroke="none"/>
      <rect x="97.0527" y="136.1868" clip-path="url(#clipPath2)" fill="rgb(66,139,202)" width="208.6266" rx="4" ry="4" height="63.28" stroke="none"/>
    </g>
    <g stroke-linecap="butt" transform="matrix(1,0,0,1,32,-32)" fill="rgb(45,86,122)" text-rendering="geometricPrecision" shape-rendering="geometricPrecision" stroke="rgb(45,86,122)" stroke-miterlimit="1.45">
      <rect x="97.0527" y="136.1868" clip-path="url(#clipPath2)" fill="none" width="208.6266" rx="4" ry="4" height="63.28"/>
      <text x="166.4119" y="190.6367" clip-path="url(#clipPath2)" fill="white" font-family="sans-serif" stroke="none" xml:space="preserve">CommandB</text>
    </g>
    <g fill="white" text-rendering="geometricPrecision" shape-rendering="geometricPrecision" transform="matrix(1,0,0,1,32,-32)" stroke="white">
      <ellipse rx="52.6527" ry="16.8944" clip-path="url(#clipPath2)" cx="162.0751" cy="160.1468" stroke="none"/>
    </g>
    <g text-rendering="geometricPrecision" stroke-miterlimit="1.45" shape-rendering="geometricPrecision" transform="matrix(1,0,0,1,32,-32)" stroke-linecap="butt">
      <ellipse rx="52.6527" fill="none" ry="16.8944" clip-path="url(#clipPath2)" cx="162.0751" cy="160.1468"/>
      <text x="131.7323" xml:space="preserve" y="164.3011" clip-path="url(#clipPath2)" font-family="sans-serif" stroke="none">ReceiverB</text>
    </g>
    <g fill="white" text-rendering="geometricPrecision" shape-rendering="geometricPrecision" transform="matrix(1,0,0,1,32,-32)" stroke="white">
      <rect x="231.8111" width="68.8506" height="17.2" y="140.7948" clip-path="url(#clipPath2)" stroke="none"/>
    </g>
    <g text-rendering="geometricPrecision" stroke-miterlimit="1.45" shape-rendering="geometricPrecision" transform="matrix(1,0,0,1,32,-32)" stroke-linecap="butt">
      <rect fill="none" x="231.8111" width="68.8506" height="17.2" y="140.7948" clip-path="url(#clipPath2)"/>
      <text x="237.8111" xml:space="preserve" y="153.5491" clip-path="url(#clipPath2)" font-family="sans-serif" stroke="none">.action2()</text>
    </g>
    <g fill="white" text-rendering="geometricPrecision" shape-rendering="geometricPrecision" transform="matrix(1,0,0,1,32,-32)" stroke="white">
      <rect x="231.8111" width="68.8506" height="17.2" y="157.9948" clip-path="url(#clipPath2)" stroke="none"/>
    </g>
    <g text-rendering="geometricPrecision" stroke-miterlimit="1.45" shape-rendering="geometricPrecision" transform="matrix(1,0,0,1,32,-32)" stroke-linecap="butt">
      <rect fill="none" x="231.8111" width="68.8506" height="17.2" y="157.9948" clip-path="url(#clipPath2)"/>
      <text x="237.8111" xml:space="preserve" y="170.7491" clip-path="url(#clipPath2)" font-family="sans-serif" stroke="none">.action3()</text>
    </g>
    <g fill="rgb(234,234,234)" text-rendering="geometricPrecision" shape-rendering="geometricPrecision" transform="matrix(1,0,0,1,32,-32)" stroke="rgb(234,234,234)">
      <rect x="21.3343" width="9.7862" height="14.64" y="161.7815" clip-path="url(#clipPath2)" stroke="none"/>
    </g>
    <g text-rendering="geometricPrecision" stroke-miterlimit="1.45" shape-rendering="geometricPrecision" transform="matrix(1,0,0,1,32,-32)" stroke-linecap="butt">
      <path fill="none" d="M214.7278 88.6748 L231.8111 88.6748" clip-path="url(#clipPath2)"/>
      <path fill="none" d="M-19.5841 101.2188 L9.6347 101.2188" clip-path="url(#clipPath2)"/>
      <path d="M17.6347 101.2188 L5.6347 96.2188 L8.6347 101.2188 L5.6347 106.2188 Z" clip-path="url(#clipPath2)" stroke="none"/>
      <path fill="none" d="M31.1205 101.2188 L89.072 101.2188" clip-path="url(#clipPath2)"/>
      <path d="M97.072 101.2188 L85.072 96.2188 L88.072 101.2188 L85.072 106.2188 Z" clip-path="url(#clipPath2)" stroke="none"/>
      <text x="40.1193" font-size="10px" y="94.1303" clip-path="url(#clipPath2)" font-family="sans-serif" stroke="none" xml:space="preserve">execute()</text>
      <path fill="none" d="M212.1979 154.9729 L231.8111 152.9483" clip-path="url(#clipPath2)"/>
      <path fill="none" d="M213.7744 163.3472 L231.8111 164.4637" clip-path="url(#clipPath2)"/>
      <path fill="none" d="M-19.5841 169.1015 L9.6129 169.1015" clip-path="url(#clipPath2)"/>
      <path d="M17.6129 169.1015 L5.6129 164.1015 L8.6129 169.1015 L5.6129 174.1015 Z" clip-path="url(#clipPath2)" stroke="none"/>
      <path fill="none" d="M31.1205 169.0659 L89.0825 168.644" clip-path="url(#clipPath2)"/>
      <path d="M97.0823 168.5858 L85.0463 163.6733 L88.0826 168.6513 L85.119 173.673 Z" clip-path="url(#clipPath2)" stroke="none"/>
      <text x="40.4556" font-size="10px" y="162.5612" clip-path="url(#clipPath2)" font-family="sans-serif" stroke="none" xml:space="preserve">execute()</text>
    </g>
  </g>
</svg>
