<?xml version="1.0" encoding="UTF-8"?><svg xmlns="http://www.w3.org/2000/svg" xmlns:xlink="http://www.w3.org/1999/xlink" fill-opacity="1" color-rendering="auto" color-interpolation="auto" text-rendering="auto" stroke="black" stroke-linecap="square" width="493" stroke-miterlimit="10" shape-rendering="auto" stroke-opacity="1" fill="black" stroke-dasharray="none" font-weight="normal" stroke-width="1" height="223" font-family="'Dialog'" font-style="normal" stroke-linejoin="miter" font-size="12px" stroke-dashoffset="0" image-rendering="auto">
  <!--Generated by ySVG 2.5-->
  <defs id="genericDefs"/>
  <g>
    <defs id="defs1">
      <clipPath clipPathUnits="userSpaceOnUse" id="clipPath1">
        <path d="M0 0 L493 0 L493 223 L0 223 L0 0 Z"/>
      </clipPath>
      <clipPath clipPathUnits="userSpaceOnUse" id="clipPath2">
        <path d="M10 460 L338.6667 460 L338.6667 608.6667 L10 608.6667 L10 460 Z"/>
      </clipPath>
    </defs>
    <g fill="white" text-rendering="geometricPrecision" shape-rendering="geometricPrecision" transform="scale(1.5,1.5) translate(-10,-460)" stroke="white">
      <rect x="10" width="329" height="149" y="460" clip-path="url(#clipPath2)" stroke="none"/>
    </g>
    <g text-rendering="geometricPrecision" stroke-miterlimit="1.45" shape-rendering="geometricPrecision" font-family="sans-serif" transform="matrix(1.5,0,0,1.5,-15,-690)" stroke-linecap="butt">
      <text x="217.3419" xml:space="preserve" y="481.6027" clip-path="url(#clipPath2)" stroke="none">Observer</text>
      <rect x="211.3419" y="464.464" clip-path="url(#clipPath2)" fill="none" width="123.237" stroke-dasharray="6,2" rx="4" ry="4" height="139.544"/>
    </g>
    <g fill="rgb(66,139,202)" text-rendering="geometricPrecision" shape-rendering="geometricPrecision" transform="matrix(1.5,0,0,1.5,-15,-690)" stroke="rgb(66,139,202)">
      <rect x="27.0355" y="530.824" clip-path="url(#clipPath2)" width="67.6518" rx="4" ry="4" height="24.88" stroke="none"/>
    </g>
    <g stroke-linecap="butt" transform="matrix(1.5,0,0,1.5,-15,-690)" fill="white" text-rendering="geometricPrecision" font-family="sans-serif" shape-rendering="geometricPrecision" stroke="white" stroke-miterlimit="1.45">
      <text x="38.4317" xml:space="preserve" y="547.4183" clip-path="url(#clipPath2)" stroke="none">Subject</text>
      <rect x="27.0355" y="530.824" clip-path="url(#clipPath2)" fill="none" width="67.6518" rx="4" ry="4" height="24.88" stroke="rgb(45,86,122)"/>
    </g>
    <g fill="rgb(66,139,202)" text-rendering="geometricPrecision" shape-rendering="geometricPrecision" transform="matrix(1.5,0,0,1.5,-15,-690)" stroke="rgb(66,139,202)">
      <ellipse rx="45.544" ry="15" clip-path="url(#clipPath2)" cx="274.52" cy="504.732" stroke="none"/>
    </g>
    <g stroke-linecap="butt" transform="matrix(1.5,0,0,1.5,-15,-690)" fill="rgb(45,86,122)" text-rendering="geometricPrecision" shape-rendering="geometricPrecision" stroke="rgb(45,86,122)" stroke-miterlimit="1.45">
      <ellipse rx="45.544" fill="none" ry="15" clip-path="url(#clipPath2)" cx="274.52" cy="504.732"/>
      <text x="242.8911" y="508.8863" clip-path="url(#clipPath2)" fill="white" font-family="sans-serif" stroke="none" xml:space="preserve">ObserverA</text>
    </g>
    <g fill="rgb(66,139,202)" text-rendering="geometricPrecision" shape-rendering="geometricPrecision" transform="matrix(1.5,0,0,1.5,-15,-690)" stroke="rgb(66,139,202)">
      <ellipse rx="45.544" ry="15" clip-path="url(#clipPath2)" cx="274.52" cy="543.264" stroke="none"/>
    </g>
    <g stroke-linecap="butt" transform="matrix(1.5,0,0,1.5,-15,-690)" fill="rgb(45,86,122)" text-rendering="geometricPrecision" shape-rendering="geometricPrecision" stroke="rgb(45,86,122)" stroke-miterlimit="1.45">
      <ellipse rx="45.544" fill="none" ry="15" clip-path="url(#clipPath2)" cx="274.52" cy="543.264"/>
      <text x="242.8794" y="547.4183" clip-path="url(#clipPath2)" fill="white" font-family="sans-serif" stroke="none" xml:space="preserve">ObserverB</text>
    </g>
    <g fill="rgb(66,139,202)" text-rendering="geometricPrecision" shape-rendering="geometricPrecision" transform="matrix(1.5,0,0,1.5,-15,-690)" stroke="rgb(66,139,202)">
      <ellipse rx="45.544" ry="15" clip-path="url(#clipPath2)" cx="274.52" cy="581.3966" stroke="none"/>
    </g>
    <g stroke-linecap="butt" transform="matrix(1.5,0,0,1.5,-15,-690)" fill="rgb(45,86,122)" text-rendering="geometricPrecision" shape-rendering="geometricPrecision" stroke="rgb(45,86,122)" stroke-miterlimit="1.45">
      <ellipse rx="45.544" fill="none" ry="15" clip-path="url(#clipPath2)" cx="274.52" cy="581.3966"/>
      <text x="242.8061" y="585.5509" clip-path="url(#clipPath2)" fill="white" font-family="sans-serif" stroke="none" xml:space="preserve">ObserverC</text>
      <path fill="none" d="M79.4342 530.8354 L78.314 524.6916 L73.4408 506.9155 L68.21 496.1318 L65.4605 493.3622 L62.6216 492.3407 L59.6933 493.0673 L56.6756 495.542 L50.3721 505.7358 L43.711 522.9221 L43.6519 523.1257" clip-path="url(#clipPath2)" stroke="black"/>
      <path fill="black" d="M41.4218 530.8086 L49.5688 520.6782 L43.9307 522.1654 L39.9652 517.8904 Z" clip-path="url(#clipPath2)" stroke="none"/>
      <rect x="14.5689" y="498.6361" clip-path="url(#clipPath2)" fill="white" width="104.4531" height="17.9688" stroke="none"/>
      <text x="16.5689" y="511.7748" clip-path="url(#clipPath2)" fill="black" font-family="sans-serif" stroke="none" xml:space="preserve">Subject changed</text>
      <path fill="none" d="M94.6857 539.168 L128.0506 539.168 L128.0506 503.998 L221.0197 503.998" clip-path="url(#clipPath2)" stroke="black"/>
      <path fill="black" d="M229.0197 503.998 L217.0197 498.998 L220.0197 503.998 L217.0197 508.998 Z" clip-path="url(#clipPath2)" stroke="none"/>
      <rect x="142.1226" y="495.0136" clip-path="url(#clipPath2)" fill="white" width="55.6445" height="17.9688" stroke="none"/>
      <text x="144.1226" y="508.1523" clip-path="url(#clipPath2)" fill="black" font-family="sans-serif" stroke="none" xml:space="preserve">update()</text>
      <path fill="none" d="M94.6889 543.264 L220.976 543.264" clip-path="url(#clipPath2)" stroke="black"/>
      <path fill="black" d="M228.976 543.264 L216.976 538.264 L219.976 543.264 L216.976 548.264 Z" clip-path="url(#clipPath2)" stroke="none"/>
      <rect x="140.5648" y="534.2796" clip-path="url(#clipPath2)" fill="white" width="55.6445" height="17.9688" stroke="none"/>
      <text x="142.5648" y="547.4183" clip-path="url(#clipPath2)" fill="black" font-family="sans-serif" stroke="none" xml:space="preserve">update()</text>
      <path fill="none" d="M94.6857 547.0238 L128.0506 547.0238 L128.0506 581.3966 L220.976 581.3966" clip-path="url(#clipPath2)" stroke="black"/>
      <path fill="black" d="M228.976 581.3966 L216.976 576.3966 L219.976 581.3966 L216.976 586.3966 Z" clip-path="url(#clipPath2)" stroke="none"/>
      <rect x="141.5024" y="572.4122" clip-path="url(#clipPath2)" fill="white" width="55.6445" height="17.9688" stroke="none"/>
      <text x="143.5024" y="585.5509" clip-path="url(#clipPath2)" fill="black" font-family="sans-serif" stroke="none" xml:space="preserve">update()</text>
    </g>
  </g>
</svg>
