<?xml version="1.0" encoding="UTF-8"?><svg xmlns="http://www.w3.org/2000/svg" xmlns:xlink="http://www.w3.org/1999/xlink" fill-opacity="1" color-rendering="auto" color-interpolation="auto" text-rendering="auto" stroke="black" stroke-linecap="square" width="297" stroke-miterlimit="10" shape-rendering="auto" stroke-opacity="1" fill="black" stroke-dasharray="none" font-weight="normal" stroke-width="1" height="147" font-family="'Dialog'" font-style="normal" stroke-linejoin="miter" font-size="12px" stroke-dashoffset="0" image-rendering="auto">
  <!--Generated by ySVG 2.5-->
  <defs id="genericDefs"/>
  <g>
    <defs id="defs1">
      <clipPath clipPathUnits="userSpaceOnUse" id="clipPath1">
        <path d="M0 0 L297 0 L297 147 L0 147 L0 0 Z"/>
      </clipPath>
      <clipPath clipPathUnits="userSpaceOnUse" id="clipPath2">
        <path d="M423 216 L720 216 L720 363 L423 363 L423 216 Z"/>
      </clipPath>
    </defs>
    <g fill="white" text-rendering="geometricPrecision" shape-rendering="geometricPrecision" transform="translate(-423,-216)" stroke="white">
      <rect x="423" width="297" height="147" y="216" clip-path="url(#clipPath2)" stroke="none"/>
    </g>
    <g fill="rgb(234,234,234)" text-rendering="geometricPrecision" shape-rendering="geometricPrecision" transform="matrix(1,0,0,1,-423,-216)" stroke="rgb(234,234,234)">
      <rect x="428.931" y="276.872" clip-path="url(#clipPath2)" width="125.925" rx="4" ry="4" height="80.536" stroke="none"/>
    </g>
    <g text-rendering="geometricPrecision" stroke-miterlimit="1.45" shape-rendering="geometricPrecision" font-family="sans-serif" transform="matrix(1,0,0,1,-423,-216)" stroke-linecap="butt">
      <text x="434.9309" xml:space="preserve" y="294.0107" clip-path="url(#clipPath2)" stroke="none">Context</text>
      <rect x="428.931" y="276.872" clip-path="url(#clipPath2)" fill="none" width="125.925" rx="4" ry="4" height="80.536" stroke="rgb(51,51,51)"/>
      <text x="478.996" xml:space="preserve" font-size="10px" y="237.8939" clip-path="url(#clipPath2)" stroke="none">Client</text>
      <rect x="469.6452" y="221.992" clip-path="url(#clipPath2)" fill="none" width="47.6518" rx="4" ry="4" height="24.88"/>
    </g>
    <g fill="rgb(66,139,202)" text-rendering="geometricPrecision" shape-rendering="geometricPrecision" transform="matrix(1,0,0,1,-423,-216)" stroke="rgb(66,139,202)">
      <path d="M440.8094 324.3188 L494.2094 305.7348 L547.6094 324.3188 L494.2094 342.9028 Z" fill-rule="evenodd" clip-path="url(#clipPath2)" stroke="none"/>
    </g>
    <g stroke-linecap="butt" transform="matrix(1,0,0,1,-423,-216)" fill="rgb(45,86,122)" text-rendering="geometricPrecision" shape-rendering="geometricPrecision" stroke="rgb(45,86,122)" stroke-miterlimit="1.45">
      <path fill="none" d="M440.8094 324.3188 L494.2094 305.7348 L547.6094 324.3188 L494.2094 342.9028 Z" fill-rule="evenodd" clip-path="url(#clipPath2)"/>
      <text x="462.4896" y="328.4731" clip-path="url(#clipPath2)" fill="white" font-family="sans-serif" stroke="none" xml:space="preserve">Strategy A</text>
    </g>
    <g fill="rgb(66,139,202)" text-rendering="geometricPrecision" shape-rendering="geometricPrecision" transform="matrix(1,0,0,1,-423,-216)" stroke="rgb(66,139,202)">
      <path d="M607.5251 338.824 L660.9251 320.24 L714.3251 338.824 L660.9251 357.408 Z" fill-rule="evenodd" clip-path="url(#clipPath2)" stroke="none"/>
    </g>
    <g stroke-linecap="butt" transform="matrix(1,0,0,1,-423,-216)" fill="rgb(45,86,122)" text-rendering="geometricPrecision" shape-rendering="geometricPrecision" stroke="rgb(45,86,122)" stroke-miterlimit="1.45">
      <path fill="none" d="M607.5251 338.824 L660.9251 320.24 L714.3251 338.824 L660.9251 357.408 Z" fill-rule="evenodd" clip-path="url(#clipPath2)"/>
      <text x="629.1204" y="342.9783" clip-path="url(#clipPath2)" fill="white" font-family="sans-serif" stroke="none" xml:space="preserve">Strategy C</text>
    </g>
    <g fill="rgb(66,139,202)" text-rendering="geometricPrecision" shape-rendering="geometricPrecision" transform="matrix(1,0,0,1,-423,-216)" stroke="rgb(66,139,202)">
      <path d="M607.5251 295.456 L660.9251 276.872 L714.3251 295.456 L660.9251 314.04 Z" fill-rule="evenodd" clip-path="url(#clipPath2)" stroke="none"/>
    </g>
    <g stroke-linecap="butt" transform="matrix(1,0,0,1,-423,-216)" fill="rgb(45,86,122)" text-rendering="geometricPrecision" shape-rendering="geometricPrecision" stroke="rgb(45,86,122)" stroke-miterlimit="1.45">
      <path fill="none" d="M607.5251 295.456 L660.9251 276.872 L714.3251 295.456 L660.9251 314.04 Z" fill-rule="evenodd" clip-path="url(#clipPath2)"/>
      <text x="629.1937" y="299.6103" clip-path="url(#clipPath2)" fill="white" font-family="sans-serif" stroke="none" xml:space="preserve">Strategy B</text>
      <path fill="none" d="M493.4711 246.8677 L493.4711 268.8578" clip-path="url(#clipPath2)" stroke="black"/>
      <path fill="black" d="M493.4711 276.8578 L498.4711 264.8578 L493.4711 267.8578 L488.4711 264.8578 Z" clip-path="url(#clipPath2)" stroke="none"/>
    </g>
    <g font-size="11px" stroke-linecap="butt" transform="matrix(1,0,0,1,-423,-216)" text-rendering="geometricPrecision" font-family="sans-serif" shape-rendering="geometricPrecision" stroke-miterlimit="1.45">
      <text x="497.1071" xml:space="preserve" y="264.0825" clip-path="url(#clipPath2)" stroke="none">execute()</text>
      <path fill="none" d="M494.2094 284.2842 L494.2094 297.7481" clip-path="url(#clipPath2)"/>
      <path d="M494.2094 305.7481 L499.2094 293.7481 L494.2094 296.7481 L489.2094 293.7481 Z" stroke="none" clip-path="url(#clipPath2)"/>
      <text x="498.6265" xml:space="preserve" y="298.8065" clip-path="url(#clipPath2)" stroke="none">executeStrategy()</text>
    </g>
  </g>
</svg>
